<?xml version="1.0" standalone="no"?>
<!DOCTYPE svg PUBLIC "-//W3C//DTD SVG 20010904//EN"
 "http://www.w3.org/TR/2001/REC-SVG-20010904/DTD/svg10.dtd">
<svg version="1.0" xmlns="http://www.w3.org/2000/svg"
 width="1360.000000pt" height="567.000000pt" viewBox="0 0 1360.000000 567.000000"
 preserveAspectRatio="xMidYMid meet">

<g transform="translate(0.000000,567.000000) scale(0.100000,-0.100000)"
fill="#000000" stroke="none">
<path d="M6050 4899 c-240 -27 -483 -110 -695 -237 -303 -181 -564 -489 -685
-807 -81 -212 -115 -423 -106 -663 2 -83 7 -155 9 -160 3 -4 8 -29 11 -57 19
-131 123 -390 219 -545 75 -120 243 -319 318 -375 14 -11 60 -46 101 -77 182
-138 376 -228 638 -296 194 -51 570 -54 745 -5 207 57 316 99 511 201 34 18
69 32 78 32 9 0 16 6 16 14 0 8 37 44 83 79 45 36 100 83 122 104 69 65 240
254 249 274 5 10 13 19 18 19 4 0 8 10 8 23 0 12 30 81 66 152 37 72 68 139
70 150 2 11 15 58 29 105 146 483 38 1033 -281 1435 -207 262 -471 446 -790
554 -239 80 -490 108 -734 80z m360 -49 c30 -5 64 -9 75 -8 40 2 215 -34 253
-52 39 -19 63 -50 39 -50 -7 0 -18 -9 -25 -20 -7 -11 -21 -20 -33 -20 -11 0
-18 -4 -15 -8 9 -14 -24 -53 -42 -50 -11 2 -16 -3 -14 -12 2 -13 0 -12 -10 1
-7 9 -21 15 -31 13 -11 -1 -17 3 -15 13 2 10 -5 17 -20 18 -20 1 -23 -2 -19
-22 2 -13 0 -26 -4 -29 -5 -3 -9 -10 -9 -15 0 -6 7 -3 16 5 8 9 12 21 8 27 -5
8 -3 9 5 4 14 -8 7 -53 -11 -70 -8 -7 -9 -6 -4 3 4 6 2 12 -5 12 -6 0 -9 -8
-7 -17 4 -15 -2 -18 -34 -20 -21 0 -35 3 -32 8 3 5 10 7 15 4 5 -4 9 -2 9 4 0
6 8 8 18 5 10 -4 13 -3 6 3 -11 8 -34 47 -34 57 0 3 8 3 18 0 14 -5 15 -4 2 5
-22 15 -20 66 3 81 10 6 16 7 13 1 -4 -5 -2 -12 4 -16 5 -3 10 0 10 7 1 9 4 8
13 -3 11 -14 14 -14 39 1 16 9 25 20 21 24 -4 3 3 5 15 3 12 -2 33 -16 48 -33
22 -25 24 -26 14 -5 -10 20 -10 23 3 18 11 -4 13 0 9 15 -3 14 -11 18 -25 14
-21 -5 -97 21 -97 34 0 4 -12 6 -27 6 -16 -1 -33 2 -39 6 -13 9 -54 -1 -54
-14 0 -6 -8 -4 -17 3 -14 12 -16 12 -9 -1 4 -8 -1 -4 -12 10 -15 18 -20 20
-19 8 1 -9 -2 -16 -8 -15 -5 1 -9 5 -8 9 1 3 -13 4 -33 2 -19 -2 -33 -1 -30 4
3 5 -1 9 -9 9 -8 0 -11 -5 -8 -10 4 -6 -4 -7 -21 -3 -20 5 -26 3 -26 -10 0
-13 -4 -12 -26 5 -24 19 -57 30 -41 15 3 -4 2 -15 -3 -25 -8 -13 -6 -19 8 -22
13 -4 12 -5 -5 -6 -30 -1 -39 17 -17 34 18 13 18 14 1 21 -22 8 -23 7 -30 -33
-5 -25 -3 -33 8 -33 8 0 15 -5 15 -10 0 -6 -11 -8 -25 -4 -15 4 -25 2 -25 -5
0 -6 -7 -11 -16 -11 -8 0 -13 4 -9 9 3 5 1 12 -4 15 -5 4 -8 -5 -6 -19 2 -20
0 -23 -11 -14 -18 14 -48 3 -41 -15 3 -8 -1 -17 -9 -20 -8 -3 -14 -12 -14 -21
0 -20 -27 -19 -38 2 -6 10 -21 16 -40 15 -33 -1 -44 19 -36 64 3 17 0 24 -11
24 -9 0 -14 -4 -10 -9 3 -6 -3 -14 -12 -20 -14 -7 -23 -4 -40 15 l-21 24 23
22 c13 13 28 23 32 24 4 0 26 8 48 18 22 9 78 20 125 23 47 3 92 10 100 15 17
10 196 2 280 -12z m-173 -108 c-10 -13 -9 -15 4 -10 11 4 20 -1 28 -18 6 -13
6 -24 2 -24 -5 0 -12 -8 -14 -17 -3 -12 -5 -9 -6 8 0 15 -8 32 -16 39 -18 15
-19 9 -3 -25 10 -22 8 -28 -9 -44 -14 -13 -29 -17 -48 -13 -19 3 -26 1 -21 -7
4 -6 2 -11 -3 -11 -14 0 -14 6 -1 31 7 11 7 19 1 19 -5 0 -11 -6 -14 -12 -3
-9 -7 -6 -13 6 -5 13 -3 21 4 24 7 2 9 9 6 14 -4 7 -2 8 5 4 6 -4 9 -12 6 -17
-11 -16 4 -10 25 11 12 12 18 25 15 30 -4 6 5 10 19 10 29 0 43 15 21 24 -8 3
-15 11 -15 17 0 7 8 5 20 -6 16 -15 18 -21 7 -33z m125 26 c10 0 20 -4 23 -9
4 -5 -9 -7 -32 -4 -25 4 -33 3 -24 -4 8 -5 11 -15 8 -23 -3 -8 1 -15 8 -15 7
0 11 6 8 13 -3 8 3 12 16 11 11 -1 23 -8 26 -15 3 -9 0 -12 -9 -9 -8 3 -17 3
-21 -1 -3 -3 -17 -7 -30 -8 -19 -1 -22 2 -16 14 10 18 -22 58 -38 47 -6 -3
-11 -1 -11 5 0 7 12 9 38 4 20 -4 45 -7 54 -6z m153 2 c3 -5 -3 -10 -14 -10
-23 0 -36 -16 -21 -25 5 -3 10 -1 10 4 0 6 12 11 26 11 18 0 24 4 21 13 -7 18
15 17 32 0 11 -12 11 -14 0 -12 -29 5 -101 -31 -95 -47 3 -7 -2 -15 -10 -18
-8 -3 -14 -10 -14 -16 0 -8 7 -7 23 0 22 11 22 11 2 -5 -11 -9 -19 -19 -18
-23 1 -4 -10 -8 -23 -8 -28 -2 -31 8 -7 32 16 16 16 16 -5 10 -18 -6 -22 -3
-22 14 0 14 4 19 13 14 9 -6 9 -5 0 7 -7 8 -11 25 -10 36 1 18 6 21 28 16 15
-3 30 0 33 6 9 14 43 14 51 1z m85 -41 c0 -14 -29 -17 -34 -4 -3 9 2 13 15 12
10 -1 19 -4 19 -8z m-305 -9 c3 -5 1 -10 -4 -10 -6 0 -11 5 -11 10 0 6 2 10 4
10 3 0 8 -4 11 -10z m15 -44 c0 -3 -4 -8 -10 -11 -5 -3 -10 -1 -10 4 0 6 5 11
10 11 6 0 10 -2 10 -4z m56 -13 c-2 -9 -8 -19 -15 -21 -10 -3 -10 0 -2 17 14
25 20 27 17 4z m-278 -27 c-2 -10 -7 -13 -17 -7 -8 6 -11 16 -7 27 8 21 30 4
24 -20z m-38 0 c10 -20 10 -28 -4 -47 -13 -20 -16 -21 -16 -6 0 12 -4 16 -12
10 -7 -4 -6 4 4 19 12 19 14 28 5 37 -7 7 -7 11 -1 11 6 0 16 -11 24 -24z
m270 14 c0 -5 -12 -10 -27 -9 l-28 1 25 8 c14 4 26 8 28 9 1 1 2 -3 2 -9z
m-382 -25 c-3 -3 -9 2 -12 12 -6 14 -5 15 5 6 7 -7 10 -15 7 -18z m454 18 c-6
-2 -10 -9 -6 -14 3 -5 -4 -9 -15 -9 -14 0 -21 -6 -21 -19 0 -10 -7 -32 -15
-47 -8 -16 -15 -23 -15 -16 0 7 -5 10 -10 7 -6 -4 -7 -11 -4 -17 5 -7 2 -8 -5
-4 -7 5 -10 14 -8 20 3 8 -4 12 -17 12 -15 -1 -21 5 -19 18 1 11 -6 26 -15 34
-15 11 -14 12 6 2 12 -6 22 -15 22 -21 0 -6 5 -7 10 -4 6 3 10 1 10 -6 0 -7 3
-9 7 -6 3 4 12 2 19 -4 9 -7 12 -6 10 8 -2 10 -10 17 -19 15 -9 -1 -21 7 -27
18 -7 13 -7 20 0 20 5 0 10 -8 11 -17 0 -17 1 -17 8 0 4 10 11 18 16 18 5 0
12 -8 16 -18 6 -13 8 -14 8 -3 1 14 34 37 56 38 6 0 4 -2 -3 -5z m-294 -50
c-9 -8 -21 -12 -27 -8 -16 9 -6 20 20 22 20 2 21 1 7 -14z m509 1 c-3 -3 -12
-4 -19 -1 -8 3 -5 6 6 6 11 1 17 -2 13 -5z m-612 -22 c-3 -3 -11 0 -18 7 -9
10 -8 11 6 5 10 -3 15 -9 12 -12z m165 -16 c14 -18 14 -19 -8 -7 -18 10 -27
10 -38 0 -8 -6 -14 -7 -14 -2 0 8 44 36 45 29 1 0 7 -10 15 -20z m-133 -3 c-4
-3 1 -11 10 -18 13 -9 13 -14 3 -20 -9 -5 -11 -4 -6 3 7 11 -6 17 -28 13 -5
-1 -4 5 4 13 7 9 15 16 18 16 3 0 2 -3 -1 -7z m193 3 c0 -2 -7 -9 -15 -16 -13
-11 -14 -10 -9 4 5 14 24 23 24 12z m197 -48 c-3 -7 -5 -2 -5 12 0 14 2 19 5
13 2 -7 2 -19 0 -25z m153 28 c0 -3 -4 -8 -10 -11 -5 -3 -10 -1 -10 4 0 6 5
11 10 11 6 0 10 -2 10 -4z m567 -31 c0 -8 -4 -12 -9 -9 -5 3 -6 10 -3 15 9 13
12 11 12 -6z m-1072 -5 c-3 -5 -14 -10 -23 -9 -14 0 -13 2 3 9 27 11 27 11 20
0z m132 -6 c-3 -3 -12 -4 -19 -1 -8 3 -5 6 6 6 11 1 17 -2 13 -5z m279 -26
c-9 -12 -16 -19 -16 -15 0 11 24 47 28 42 2 -2 -3 -14 -12 -27z m-220 -4 c2
-12 -1 -13 -12 -3 -7 6 -11 16 -8 21 7 11 17 3 20 -18z m761 -26 c-8 -5 -7 -8
4 -8 9 0 16 -6 17 -12 3 -34 11 -53 21 -50 6 1 11 -3 11 -9 0 -6 -7 -9 -15 -5
-9 3 -15 0 -15 -8 0 -16 -25 -28 -62 -30 -31 -2 -30 -1 -52 -41 -10 -16 -15
-23 -12 -14 3 11 -1 16 -11 15 -9 0 -18 5 -20 12 -3 6 2 12 10 12 7 0 22 9 32
20 10 12 24 19 30 16 20 -7 37 10 40 40 2 16 6 42 10 57 3 17 2 26 -4 23 -5
-4 -13 -1 -17 5 -4 8 -3 9 4 5 7 -4 12 -2 12 5 0 7 6 4 14 -7 11 -14 11 -21 3
-26z m-1247 -149 c0 -19 -27 -52 -118 -142 -116 -114 -140 -134 -128 -101 3 9
2 12 -4 9 -6 -4 -10 -12 -9 -18 4 -30 -2 -39 -21 -34 -22 6 -28 -8 -7 -16 6
-3 2 -6 -11 -6 -12 -1 -21 -4 -20 -8 5 -19 -23 -52 -42 -48 -11 2 -20 -1 -20
-7 0 -5 -7 -7 -16 -4 -9 3 -12 2 -9 -5 4 -5 16 -7 27 -3 19 6 20 5 1 -13 -17
-19 -49 -20 -37 -2 5 8 -3 11 -23 8 -3 0 -11 7 -16 16 -7 13 -11 14 -17 5 -8
-13 -70 -21 -70 -8 0 4 9 8 19 8 15 0 19 7 18 35 -1 19 -5 35 -10 35 -4 0 -5
-4 -2 -10 3 -5 2 -10 -4 -10 -5 0 -11 5 -13 11 -2 6 -10 -2 -18 -17 -11 -20
-12 -28 -3 -31 7 -2 9 -11 6 -19 -3 -7 -10 -11 -16 -7 -6 3 -7 1 -3 -5 4 -7 1
-12 -7 -12 -7 0 -14 7 -14 15 0 8 3 15 7 15 4 0 6 10 6 23 -1 12 2 28 8 35 7
9 6 16 -4 22 -7 4 -10 15 -7 25 4 10 3 14 -4 9 -6 -3 -9 -19 -7 -35 3 -17 -1
-30 -8 -33 -8 -3 -11 1 -7 10 3 7 0 14 -6 14 -6 0 -11 -8 -12 -17 0 -16 -1
-16 -7 -2 -4 9 -15 15 -25 13 -9 -1 -15 2 -11 7 3 5 -2 9 -10 9 -8 0 -17 4
-20 9 -8 13 22 7 36 -7 9 -9 16 -8 30 5 14 13 18 13 19 2 0 -8 5 -3 10 10 7
18 5 28 -8 43 -12 14 -14 21 -5 28 7 6 10 7 7 4 -5 -7 36 -47 42 -40 7 7 -9
36 -18 30 -5 -3 -9 2 -9 11 0 10 5 13 12 9 6 -4 8 -3 4 4 -3 6 -15 9 -25 7
-10 -2 -18 3 -18 11 0 8 4 14 8 14 5 0 5 8 2 17 -5 12 -2 15 10 10 11 -4 17
-1 17 8 0 12 23 26 43 24 5 0 14 6 20 14 16 18 93 64 83 49 -13 -22 167 89
194 119 3 3 27 22 54 42 l50 38 67 -73 c46 -49 68 -81 69 -99z m395 161 c3 -5
1 -10 -4 -10 -6 0 -11 5 -11 10 0 6 2 10 4 10 3 0 8 -4 11 -10z m1073 -56 c-4
-3 -12 5 -18 18 -12 22 -12 22 6 6 10 -10 15 -20 12 -24z m-358 -18 c0 -2 -12
-12 -27 -21 l-28 -18 19 21 c17 20 36 29 36 18z m290 -36 c22 0 35 -30 18 -41
-7 -4 -15 -6 -17 -3 -3 3 1 9 9 14 8 6 13 10 10 11 -3 0 -13 2 -22 4 -10 2
-20 -1 -24 -6 -3 -5 -1 -9 5 -9 5 0 9 -9 8 -20 -1 -12 -8 -20 -19 -20 -10 0
-18 -5 -18 -12 0 -9 -3 -9 -11 -1 -6 6 -18 9 -26 6 -13 -5 -13 -2 -5 14 6 11
9 22 7 25 -2 2 5 4 16 5 23 2 47 24 43 41 -1 7 0 8 3 2 2 -5 13 -10 23 -10z
m-50 -4 c0 -3 -4 -8 -10 -11 -5 -3 -10 -1 -10 4 0 6 5 11 10 11 6 0 10 -2 10
-4z m104 -12 c3 -8 2 -12 -4 -9 -6 3 -10 10 -10 16 0 14 7 11 14 -7z m126 -39
c-5 -7 -7 -15 -3 -19 4 -4 0 -4 -10 0 -9 3 -17 16 -16 28 0 21 1 21 10 1 8
-17 9 -15 5 10 -4 27 -3 28 10 11 9 -13 10 -23 4 -31z m-352 0 c29 -10 28 -20
-2 -20 -13 0 -29 7 -35 17 -11 17 -8 17 37 3z m67 -5 c-4 -6 -1 -18 7 -27 9
-12 9 -15 1 -9 -12 6 -14 2 -12 -21 0 -5 7 -7 16 -5 11 2 14 -1 10 -12 -3 -8
-2 -18 3 -21 4 -3 10 1 13 7 3 8 9 3 15 -12 12 -30 7 -40 -19 -40 -10 0 -19
-5 -19 -12 0 -6 -3 -8 -6 -5 -4 4 -1 13 5 21 10 12 8 19 -9 36 -17 17 -24 18
-41 9 -11 -6 -23 -8 -26 -5 -3 3 -12 -1 -20 -9 -18 -18 -37 -20 -27 -2 4 6 -3
3 -17 -8 -13 -11 -18 -13 -11 -4 14 19 6 30 -16 22 -11 -5 -14 -2 -9 9 3 10 0
19 -9 22 -8 3 -14 0 -14 -7 0 -8 -4 -6 -10 3 -12 18 -14 40 -2 25 9 -13 42
-18 42 -7 0 5 7 9 15 9 11 0 12 -4 5 -11 -14 -14 -13 -23 6 -30 11 -4 15 -2
11 7 -3 8 4 14 18 15 13 1 26 -5 29 -13 3 -8 10 -15 17 -15 6 0 9 7 5 15 -3 8
-2 14 2 14 19 -3 26 2 13 10 -8 5 -11 16 -6 30 3 12 10 19 15 16 5 -3 11 -1
15 5 3 5 8 10 11 10 3 0 2 -5 -1 -10z m-291 -21 c-3 -5 -10 -7 -15 -4 -5 4 -9
-3 -9 -14 0 -12 -7 -21 -16 -21 -16 0 -12 12 14 42 15 18 37 15 26 -3z m411
11 c-3 -5 1 -10 9 -10 9 0 16 -4 16 -10 0 -5 9 -10 21 -10 11 0 17 -4 14 -10
-3 -5 -1 -10 4 -10 6 0 11 -4 11 -9 0 -5 -10 -7 -22 -5 -13 2 -17 2 -10 -2 19
-9 14 -21 -9 -19 -23 2 -52 33 -43 46 3 5 -3 10 -13 10 -16 1 -16 2 -1 6 10 2
15 10 11 19 -3 8 0 14 7 14 6 0 8 -4 5 -10z m-385 -45 c7 -9 8 -15 2 -15 -5 0
-12 7 -16 15 -3 8 -4 15 -2 15 2 0 9 -7 16 -15z m51 -43 c-6 -10 -7 -22 -3
-26 3 -4 0 -4 -9 -1 -20 7 -22 45 -3 45 9 0 12 5 8 13 -5 9 -4 9 5 1 10 -9 10
-17 2 -32z m-127 12 c3 -9 12 -14 19 -11 7 3 13 -3 13 -14 0 -19 -29 -20 -69
-4 -17 7 -17 9 -1 26 21 23 30 24 38 3z m-45 -44 c4 0 16 -7 27 -15 18 -14 18
-14 -3 -8 -13 3 -23 1 -23 -5 0 -6 -7 -18 -16 -27 -10 -10 -13 -22 -8 -33 4
-9 6 -21 5 -25 -1 -5 4 -6 11 -2 7 4 4 -1 -6 -9 -11 -9 -16 -16 -10 -17 7 0
-134 -59 -143 -59 -1 0 10 37 23 83 21 69 32 89 71 127 l47 44 9 -27 c5 -15
12 -27 16 -27z m496 40 c3 -5 1 -10 -4 -10 -6 0 -11 5 -11 10 0 6 2 10 4 10 3
0 8 -4 11 -10z m-285 -4 c0 -3 -4 -8 -10 -11 -5 -3 -10 -1 -10 4 0 6 5 11 10
11 6 0 10 -2 10 -4z m174 -21 c-4 -8 -11 -15 -16 -15 -6 0 -5 6 2 15 7 8 14
15 16 15 2 0 1 -7 -2 -15z m206 1 c0 -3 -4 -8 -10 -11 -5 -3 -10 -1 -10 4 0 6
5 11 10 11 6 0 10 -2 10 -4z m-480 -32 c0 -9 -5 -14 -12 -12 -18 6 -21 28 -4
28 9 0 16 -7 16 -16z m353 -24 c9 -11 12 -20 7 -20 -6 0 -13 7 -16 15 -4 8
-10 12 -15 9 -5 -3 -9 0 -9 5 0 17 14 13 33 -9z m-263 -14 c0 -2 -7 -7 -16
-10 -8 -3 -12 -2 -9 4 6 10 25 14 25 6z m238 -19 c-1 -13 -8 -24 -15 -24 -16
0 -16 2 -1 27 16 26 18 25 16 -3z m-411 -14 c-3 -17 -1 -23 9 -19 7 3 16 0 20
-7 4 -7 4 -9 -1 -5 -4 4 -16 3 -26 -3 -14 -7 -19 -6 -20 3 0 7 -2 22 -3 34 -1
12 3 21 12 21 9 0 12 -8 9 -24z m-1602 8 c3 -5 2 -12 -3 -15 -5 -3 -9 1 -9 9
0 17 3 19 12 6z m31 -16 c-1 -8 -7 -20 -13 -26 -13 -13 -13 7 0 29 11 16 16
15 13 -3z m-66 1 c0 -3 -4 -8 -10 -11 -5 -3 -10 -1 -10 4 0 6 5 11 10 11 6 0
10 -2 10 -4z m-17 -64 c-3 -12 -9 -22 -14 -22 -5 0 -3 11 3 25 13 30 20 28 11
-3z m2640 -3 c9 -17 15 -34 12 -39 -3 -4 2 -13 10 -20 20 -17 19 -57 -2 -69
-15 -9 -12 -10 15 -11 28 0 34 -4 31 -26 0 -3 8 -12 18 -19 17 -13 17 -14 1
-20 -9 -4 -21 -20 -27 -37 -9 -26 -8 -29 5 -24 20 8 43 -20 44 -50 0 -12 -7
-24 -15 -28 -9 -3 -16 -19 -16 -38 -1 -24 -3 -27 -6 -10 -3 16 -11 22 -31 22
-15 0 -22 -4 -16 -8 15 -9 12 -40 -5 -71 -12 -22 -12 -24 7 -19 15 4 19 2 15
-8 -3 -8 -9 -12 -13 -9 -5 3 -11 -4 -15 -15 -3 -11 -11 -20 -18 -20 -8 0 -8 3
1 12 19 19 15 31 -23 73 l-34 39 20 19 c11 11 23 16 27 12 3 -3 0 -10 -8 -15
-11 -7 -9 -9 8 -7 12 0 22 1 22 2 0 0 -4 15 -9 32 -9 31 2 58 12 31 2 -7 8
-10 11 -6 4 3 -2 16 -13 27 -13 13 -21 16 -22 9 0 -10 -2 -10 -6 0 -2 6 -8 10
-13 7 -15 -9 -23 57 -9 67 10 7 8 8 -9 5 -33 -8 -17 10 22 23 19 6 33 16 32
23 -7 31 -19 44 -35 40 -11 -3 -21 2 -25 13 -5 14 -4 15 9 4 13 -11 14 -10 9
4 -3 9 -15 16 -25 16 -11 0 -19 7 -19 17 0 13 -3 12 -19 -5 -10 -12 -20 -19
-23 -17 -9 9 -88 -31 -80 -40 4 -5 1 -5 -7 0 -8 4 -17 2 -22 -6 -7 -12 -9 -11
-9 1 0 13 -1 13 -10 0 -9 -13 -11 -13 -20 0 -6 9 -10 10 -10 3 0 -14 12 -23
41 -28 24 -5 39 -15 21 -15 -17 0 34 -47 59 -55 18 -6 21 -4 15 10 -5 15 -4
16 9 5 8 -7 15 -10 15 -7 0 3 3 13 7 23 5 13 3 15 -7 9 -9 -6 -11 -4 -5 4 4 7
11 9 16 4 12 -12 -1 -53 -18 -53 -8 0 -11 -5 -8 -10 4 -6 -5 -5 -19 2 -32 14
-44 5 -25 -19 9 -11 10 -14 2 -9 -8 4 -13 1 -13 -8 0 -10 6 -13 15 -10 8 4 15
1 15 -5 0 -6 -5 -11 -10 -11 -7 0 -6 -8 2 -22 7 -13 11 -29 10 -35 -2 -7 5
-13 14 -13 10 0 14 5 10 15 -15 41 29 60 62 27 18 -18 19 -47 1 -36 -5 3 -5
-4 0 -19 6 -15 6 -29 -1 -38 -8 -12 -9 -11 -5 1 3 11 -2 16 -16 18 -18 1 -19
-1 -7 -9 13 -8 12 -12 -5 -24 -18 -14 -20 -14 -26 3 -4 11 -20 29 -36 42 -28
22 -72 95 -50 84 7 -3 1 4 -13 16 -18 16 -20 20 -7 16 10 -3 16 -2 12 3 -3 5
1 12 7 15 7 3 2 3 -12 0 -33 -6 -58 29 -38 54 11 15 11 15 -3 5 -9 -7 -19 -10
-22 -6 -12 11 -8 43 5 43 7 0 1 8 -12 17 -14 10 -28 17 -32 16 -3 -1 -1 11 5
27 6 17 18 30 25 30 8 0 31 9 51 20 64 34 170 72 182 64 7 -4 9 -3 5 4 -3 6 3
12 16 15 13 2 25 5 28 6 3 0 13 -13 23 -30z m-2598 -29 c-3 -5 -1 -11 4 -15 5
-3 14 2 19 11 8 15 10 15 15 0 4 -10 3 -14 -2 -11 -6 3 -13 -1 -18 -9 -4 -7
-16 -15 -26 -17 -18 -4 -18 -5 1 -26 11 -13 28 -23 38 -23 16 0 17 -2 4 -11
-13 -8 -12 -9 4 -7 20 3 32 -27 15 -38 -5 -3 -6 -10 -3 -16 4 -7 2 -8 -4 -4
-7 4 -12 1 -12 -6 0 -7 -6 -4 -12 7 -6 11 -16 23 -22 27 -7 5 -7 8 2 8 7 0 10
5 6 11 -4 8 -9 7 -15 -2 -4 -7 -11 -10 -15 -6 -4 3 -1 14 7 23 12 15 11 16
-11 11 -14 -4 -19 -4 -12 -1 6 3 12 15 12 25 0 11 -5 17 -10 14 -6 -4 -7 -12
-4 -18 4 -7 1 -7 -7 1 -12 11 -11 15 3 23 9 5 15 16 12 23 -3 7 2 16 11 20 9
3 13 11 9 17 -4 8 -3 9 5 5 6 -4 9 -11 6 -16z m-111 -6 c3 -8 2 -12 -4 -9 -6
3 -10 10 -10 16 0 14 7 11 14 -7z m198 -16 c-7 -7 -12 -8 -12 -2 0 14 12 26
19 19 2 -3 -1 -11 -7 -17z m69 7 c1 -17 -18 -17 -25 0 -4 11 -1 15 10 13 8 -2
15 -7 15 -13z m-321 -21 c0 -8 -19 -13 -24 -6 -3 5 1 9 9 9 8 0 15 -2 15 -3z
m60 -21 c0 -10 -4 -14 -8 -8 -4 6 -11 13 -16 18 -5 4 -2 7 7 7 10 0 17 -8 17
-17z m144 8 c3 -5 -1 -11 -9 -15 -8 -3 -17 0 -21 6 -4 7 -3 8 4 4 7 -4 12 -2
12 3 0 13 7 14 14 2z m31 -12 c-5 -14 -3 -19 3 -15 6 3 14 1 17 -4 5 -8 13 -6
26 6 11 10 19 12 19 6 0 -7 -5 -12 -11 -12 -6 0 -3 -7 5 -16 9 -8 16 -17 16
-19 0 -7 -31 -35 -39 -35 -4 0 -7 9 -8 20 -1 12 4 20 14 20 9 0 13 3 9 8 -10
10 -30 10 -37 -1 -3 -4 -17 1 -30 12 -13 11 -18 20 -11 21 6 0 12 7 12 15 0 8
5 15 11 15 6 0 8 -9 4 -21z m168 -22 c-3 -4 -11 -6 -17 -4 -7 3 -19 1 -27 -4
-8 -5 -9 -9 -3 -9 6 0 11 -7 11 -15 0 -8 -6 -15 -14 -15 -14 0 -17 27 -7 55 5
13 8 14 15 3 7 -10 9 -9 9 5 0 14 3 15 19 5 11 -7 17 -16 14 -21z m-69 17 c-7
-3 -9 -14 -6 -26 3 -14 1 -19 -6 -14 -19 11 -14 46 6 45 9 0 12 -3 6 -5z
m-309 -22 c-3 -3 -11 0 -18 7 -9 10 -8 11 6 5 10 -3 15 -9 12 -12z m2602 -6
c-1 -6 3 -10 9 -9 5 1 16 -8 23 -19 11 -18 11 -20 -4 -14 -9 3 -21 6 -26 6 -5
0 -9 6 -9 14 0 8 -4 17 -10 21 -5 3 -7 -8 -5 -29 5 -38 -5 -51 -33 -42 -19 6
-25 46 -7 43 5 -1 9 4 7 11 -1 8 2 11 7 8 5 -3 11 0 14 7 6 16 37 18 34 3z
m-2651 -24 c-14 -14 -17 -14 -14 -2 3 17 20 31 27 24 3 -2 -3 -12 -13 -22z
m132 19 c-3 -9 40 -51 52 -51 4 0 10 -10 13 -22 6 -21 5 -22 -7 -5 -13 17 -14
16 -19 -3 -3 -11 -1 -18 4 -14 5 3 9 2 10 -3 0 -4 3 -21 5 -36 4 -25 3 -27 -9
-15 -8 7 -13 16 -11 20 2 4 0 9 -5 12 -5 4 -13 1 -17 -5 -5 -8 -3 -9 7 -4 8 5
5 -2 -6 -14 -20 -23 -20 -23 0 -20 15 3 21 -2 23 -20 2 -14 0 -21 -7 -17 -5 4
-7 14 -4 22 5 14 3 15 -15 5 -24 -13 -38 1 -18 19 8 6 13 20 11 31 -2 10 1 19
7 19 6 0 9 3 5 6 -3 4 1 13 9 22 20 19 6 28 -45 27 -22 0 -37 3 -35 7 3 5 -2
8 -11 8 -9 0 -13 5 -9 11 4 8 9 8 17 0 19 -19 46 -13 40 9 -3 11 0 20 6 20 6
0 10 -4 9 -9z m2572 -6 c-7 -9 -15 -13 -19 -10 -3 3 1 10 9 15 21 14 24 12 10
-5z m70 -9 c0 -11 -19 -15 -25 -6 -3 5 1 10 9 10 9 0 16 -2 16 -4z m-1934 -26
c8 0 14 -6 14 -13 0 -8 -7 -14 -15 -14 -8 0 -12 4 -9 8 2 4 0 10 -6 14 -5 3
-10 1 -10 -6 0 -7 -3 -10 -6 -6 -4 3 -3 14 1 24 5 12 9 14 12 6 3 -7 11 -13
19 -13z m1631 5 c0 -8 -4 -12 -9 -9 -4 3 -8 9 -8 15 0 5 4 9 8 9 5 0 9 -7 9
-15z m-2107 -38 c0 -5 -7 -6 -15 -3 -8 3 -21 9 -29 12 -7 3 -16 -2 -20 -11 -4
-11 -2 -14 6 -9 8 5 9 0 5 -17 l-6 -24 19 25 c11 14 20 20 20 14 0 -6 -9 -19
-20 -29 -11 -10 -20 -15 -20 -11 0 4 -8 2 -18 -3 -13 -7 -25 -3 -47 16 -17 14
-24 22 -17 19 6 -4 12 -1 13 6 0 10 2 10 6 1 2 -7 11 -13 19 -13 9 0 12 -5 8
-12 -4 -6 -3 -8 3 -5 6 4 10 17 9 29 -2 29 40 50 67 34 9 -6 17 -15 17 -19z
m2380 23 c0 -5 -4 -10 -10 -10 -5 0 -10 5 -10 10 0 6 5 10 10 10 6 0 10 -4 10
-10z m-2634 -23 c10 -10 -17 -8 -41 3 -17 8 -16 9 7 7 15 -2 30 -6 34 -10z
m159 -7 c3 -5 1 -10 -4 -10 -6 0 -11 5 -11 10 0 6 2 10 4 10 3 0 8 -4 11 -10z
m-161 -18 c2 -4 1 -14 -5 -22 -7 -12 -9 -12 -9 3 0 11 -4 15 -12 11 -7 -4 -8
-3 -4 4 8 14 23 16 30 4z m696 -17 c5 3 19 -4 30 -15 11 -11 25 -18 30 -15 6
4 10 1 10 -6 0 -6 -8 -9 -20 -6 -13 3 -28 -2 -40 -15 -21 -23 -18 -38 8 -55
16 -9 18 -8 17 11 -1 14 -8 20 -20 18 -14 -3 -15 -1 -4 11 8 8 16 11 17 6 2
-6 10 -5 18 2 13 10 13 8 4 -17 -8 -21 -8 -30 0 -32 7 -3 5 -11 -6 -23 -16
-17 -16 -19 0 -25 13 -5 17 -16 15 -43 -2 -20 -5 -40 -8 -46 -3 -5 -6 -48 -6
-95 0 -84 0 -85 -25 -86 -14 -1 -28 -2 -32 -4 -12 -4 -27 -7 -39 -9 -6 0 -9
-7 -6 -15 3 -8 -2 -20 -11 -28 -9 -7 -13 -8 -9 -2 4 7 0 14 -8 18 -8 3 -15 13
-15 21 0 10 5 14 13 10 6 -3 2 2 -10 11 -21 15 -34 42 -15 30 5 -3 9 1 9 9 0
8 -3 14 -6 13 -20 -2 -31 4 -31 17 0 8 -4 15 -10 15 -5 0 -10 5 -10 10 0 6 11
10 25 10 29 0 31 7 8 35 -15 20 -15 20 -10 -3 5 -20 3 -22 -11 -10 -12 10 -14
10 -8 1 4 -7 2 -13 -3 -13 -6 0 -11 5 -11 11 0 6 -7 8 -16 5 -10 -4 -13 -2 -7
6 10 17 12 48 2 42 -12 -7 -22 17 -11 28 6 6 16 3 28 -10 15 -16 22 -18 35 -9
17 13 22 50 6 40 -6 -4 -8 0 -4 10 3 10 2 17 -3 17 -5 0 -7 7 -4 15 4 8 1 15
-5 15 -6 0 -11 -7 -11 -15 0 -8 -5 -15 -11 -15 -5 0 -8 4 -5 9 4 5 0 11 -6 14
-8 3 -3 9 12 15 24 10 24 11 3 11 -12 1 -26 -6 -31 -15 -5 -9 -13 -17 -18 -17
-5 -1 -8 -5 -6 -9 3 -10 -12 -10 -22 -1 -3 4 15 26 41 51 27 24 60 55 75 69
l28 27 25 -24 c14 -13 25 -18 25 -11 0 7 4 10 9 6 6 -3 15 4 21 16 7 12 8 19
2 15 -6 -4 -8 3 -4 16 3 12 7 17 10 10 2 -7 8 -10 12 -7z m70 1 c0 -2 -7 -7
-16 -10 -8 -3 -12 -2 -9 4 6 10 25 14 25 6z m-795 -16 c-6 -10 9 -15 30 -10 6
1 5 -4 -2 -10 -9 -10 -16 -9 -33 3 -15 11 -18 16 -8 20 19 8 20 8 13 -3z m186
-34 c8 5 9 3 5 -5 -6 -9 -13 -8 -27 5 -10 9 -16 21 -12 27 3 6 10 1 15 -12 5
-13 12 -19 19 -15z m2396 18 c-3 -3 -12 -4 -19 -1 -8 3 -5 6 6 6 11 1 17 -2
13 -5z m33 -4 c0 -5 -2 -10 -4 -10 -3 0 -8 5 -11 10 -3 6 -1 10 4 10 6 0 11
-4 11 -10z m40 4 c0 -8 -19 -13 -24 -6 -3 5 1 9 9 9 8 0 15 -2 15 -3z m-2677
-19 c-3 -9 -8 -14 -10 -11 -3 3 -2 9 2 15 9 16 15 13 8 -4z m167 1 c0 -2 -7
-7 -16 -10 -8 -3 -12 -2 -9 4 6 10 25 14 25 6z m17 -41 c-4 -8 -12 -15 -19
-14 -10 0 -10 2 0 6 6 2 12 12 12 21 0 8 3 13 6 9 4 -3 4 -13 1 -22z m-67 -15
c8 -5 11 -10 5 -10 -5 0 -17 5 -25 10 -8 5 -10 10 -5 10 6 0 17 -5 25 -10z
m2734 -15 c3 -8 0 -15 -7 -15 -8 0 -8 -3 -1 -8 7 -5 7 -14 -2 -30 -7 -15 -14
-20 -19 -12 -4 6 -2 16 4 23 6 8 6 18 1 27 -14 21 -12 30 4 30 8 0 16 -7 20
-15z m-64 -30 c0 -8 -4 -15 -10 -15 -5 0 -7 7 -4 15 4 8 8 15 10 15 2 0 4 -7
4 -15z m-2810 -21 c0 -8 -19 -13 -24 -6 -3 5 1 9 9 9 8 0 15 -2 15 -3z m2598
-6 c16 -16 15 -25 -3 -32 -8 -3 -14 0 -12 7 1 7 -4 11 -10 10 -14 -3 -17 9 -6
20 9 10 17 9 31 -5z m-2623 -26 c-3 -3 -11 0 -18 7 -9 10 -8 11 6 5 10 -3 15
-9 12 -12z m632 11 c-4 -3 1 -12 11 -20 15 -13 15 -13 -6 -3 -19 9 -23 30 -5
30 4 0 3 -3 0 -7z m-667 -29 c0 -19 -18 -26 -27 -11 -4 8 -15 16 -23 19 -8 3
0 6 18 5 19 0 32 -5 32 -13z m615 -13 c2 -27 -43 -51 -55 -31 -8 13 -10 13
-10 1 0 -8 -3 -12 -6 -8 -3 3 -6 9 -6 14 0 4 -4 13 -9 20 -8 8 -1 11 25 9 24
-2 37 2 41 12 7 18 18 8 20 -17z m2319 8 c-3 -5 4 -18 14 -30 20 -21 22 -34 9
-56 -5 -7 -5 -18 -1 -25 4 -6 8 -22 10 -35 2 -17 -3 -23 -17 -23 -14 0 -18 -4
-13 -12 5 -9 3 -9 -9 1 -9 7 -14 17 -11 22 3 5 -2 6 -10 3 -19 -7 -22 21 -4
32 8 5 6 11 -7 20 -12 9 -16 21 -12 41 3 17 0 31 -10 38 -12 9 -11 11 6 11 11
0 18 -4 15 -7 -2 -4 1 -11 8 -15 7 -4 10 -4 6 1 -4 4 -3 14 4 22 9 11 8 13 -2
11 -7 -2 -14 2 -17 8 -2 7 5 10 21 7 14 -3 23 -9 20 -14z m-2903 -13 c-9 -11
-9 -15 1 -19 7 -3 3 -4 -8 -4 -21 1 -21 2 -5 23 9 12 18 20 20 18 2 -2 -1 -10
-8 -18z m49 9 c0 -12 -19 -12 -23 0 -4 9 -1 12 9 8 7 -3 14 -7 14 -8z m-128
-27 c-7 -27 -17 -29 -17 -4 0 13 5 23 11 23 6 0 9 -9 6 -19z m2851 15 c-7 -3
-13 -12 -13 -21 0 -15 -2 -15 -10 -2 -14 22 -12 26 13 27 12 0 16 -1 10 -4z
m-2289 -29 c9 -23 7 -46 -2 -40 -5 3 -16 -4 -25 -15 -9 -10 -22 -19 -29 -20
-7 0 -23 -2 -35 -3 -20 -2 -19 2 15 45 38 49 65 61 76 33z m2246 12 c0 -3 -4
-8 -10 -11 -5 -3 -10 -1 -10 4 0 6 5 11 10 11 6 0 10 -2 10 -4z m-2679 -24
c-7 -2 -18 1 -23 6 -8 8 -4 9 13 5 13 -4 18 -8 10 -11z m-104 -19 c1 -22 -1
-24 -8 -10 -6 9 -7 22 -4 27 9 14 10 13 12 -17z m2837 2 c-4 -8 -11 -15 -16
-15 -6 0 -5 6 2 15 7 8 14 15 16 15 2 0 1 -7 -2 -15z m-2797 -35 c-1 -11 -5
-20 -9 -20 -10 0 -10 4 -2 24 8 22 13 20 11 -4z m559 8 c4 -7 3 -8 -4 -4 -7 4
-12 2 -12 -5 0 -7 -3 -10 -6 -6 -6 5 3 27 11 27 2 0 7 -5 11 -12z m69 -11 c10
-10 15 -26 12 -37 -6 -22 8 -28 16 -7 3 6 6 0 6 -15 1 -18 -4 -28 -13 -28 -8
0 -16 -5 -18 -11 -6 -19 -45 -1 -52 24 -5 17 -8 19 -15 8 -10 -15 -31 -7 -31
12 0 8 2 9 8 1 5 -8 16 -5 37 8 l30 20 -30 -6 c-24 -5 -26 -4 -12 4 9 6 17 19
17 30 0 22 21 21 45 -3z m2215 9 c0 -2 -8 -10 -17 -17 -16 -13 -17 -12 -4 4
13 16 21 21 21 13z m-2365 -36 c-3 -5 -12 -10 -18 -10 -7 0 -6 4 3 10 19 12
23 12 15 0z m-99 -9 c-3 -4 4 -17 15 -27 11 -10 17 -24 15 -31 -3 -7 0 -13 6
-13 7 0 6 -5 -2 -15 -7 -8 -17 -12 -23 -8 -7 4 -8 0 -3 -12 5 -15 4 -16 -8 -6
-8 7 -21 10 -28 6 -7 -4 -5 0 5 8 21 17 22 28 2 21 -11 -4 -15 1 -15 17 -1 23
-1 23 -15 5 -8 -11 -15 -16 -15 -11 0 5 14 24 32 42 31 32 45 42 34 24z m158
1 c-6 -4 -13 -14 -17 -24 -4 -12 2 -18 21 -23 l27 -8 -27 -7 c-36 -11 -68 -2
-61 16 4 10 0 12 -13 7 -14 -5 -11 0 8 18 14 13 37 25 49 26 13 1 19 -1 13 -5z
m2310 -20 c3 -5 -1 -9 -9 -9 -8 0 -15 4 -15 9 0 4 4 8 9 8 6 0 12 -4 15 -8z
m96 -47 c14 -8 20 -14 14 -15 -14 0 -26 -40 -13 -40 5 0 9 7 9 16 0 8 4 13 8
10 4 -3 6 -21 4 -40 -3 -27 -10 -37 -32 -45 -22 -7 -27 -14 -23 -29 2 -11 0
-23 -6 -26 -7 -5 -10 1 -8 16 1 17 -3 23 -16 22 -14 -2 -15 1 -6 13 10 11 14
11 20 1 10 -14 10 -13 14 19 1 13 -2 20 -8 16 -7 -4 -8 1 -4 13 7 18 7 18 -8
0 -8 -11 -15 -24 -15 -30 0 -5 -3 -6 -6 -3 -6 6 43 87 53 87 2 0 1 -4 -2 -10
-3 -5 -1 -10 5 -10 6 0 10 8 8 18 -2 9 -10 16 -16 15 -7 -2 -12 2 -12 7 0 13
10 12 40 -5z m-2485 -5 c3 -5 -1 -10 -10 -10 -9 0 -13 5 -10 10 3 6 8 10 10
10 2 0 7 -4 10 -10z m2432 -12 c2 -17 0 -19 -7 -8 -5 8 -6 18 -4 22 8 12 10
10 11 -14z m-2261 -13 c15 -14 22 -25 17 -25 -5 0 -18 9 -28 20 -10 11 -22 17
-28 13 -6 -3 -7 -1 -3 5 10 16 11 16 42 -13z m159 15 c3 -5 1 -10 -4 -10 -6 0
-11 5 -11 10 0 6 2 10 4 10 3 0 8 -4 11 -10z m45 0 c25 -13 48 -52 26 -44 -9
3 -14 11 -13 17 1 7 -4 11 -10 10 -7 -2 -13 2 -13 8 0 5 -4 7 -10 4 -5 -3 -10
-1 -10 4 0 14 6 14 30 1z m-506 -34 c-8 -20 -24 -21 -24 0 0 8 5 12 10 9 6 -3
10 -1 10 6 0 7 2 10 5 7 3 -3 3 -13 -1 -22z m196 4 c12 -7 10 -9 -8 -7 -12 0
-22 5 -22 9 0 11 12 10 30 -2z m40 -11 c0 -6 -4 -7 -10 -4 -5 3 -10 11 -10 16
0 6 5 7 10 4 6 -3 10 -11 10 -16z m50 11 c0 -5 -4 -10 -10 -10 -5 0 -10 5 -10
10 0 6 5 10 10 10 6 0 10 -4 10 -10z m2241 -23 c-10 -9 -11 -8 -5 6 3 10 9 15
12 12 3 -3 0 -11 -7 -18z m-2060 -17 c6 0 7 5 3 12 -5 7 -3 8 5 3 9 -5 9 -11
3 -17 -12 -12 -32 -2 -31 15 0 9 2 9 6 0 2 -7 9 -13 14 -13z m-128 -26 c-3 -8
-10 -14 -15 -14 -7 0 -7 -4 0 -13 7 -8 7 -18 2 -27 -7 -11 -10 -12 -10 -2 0 7
-4 11 -9 8 -5 -3 -8 5 -8 19 0 14 3 23 7 20 4 -3 14 3 21 12 12 15 11 16 -9
11 -19 -5 -21 -4 -11 8 14 18 41 0 32 -22z m207 -3 c0 -26 -5 -41 -16 -45 -10
-4 -13 -2 -7 7 4 6 9 26 10 42 1 35 1 35 8 35 3 0 5 -18 5 -39z m1948 25 c-7
-8 -15 -12 -17 -11 -5 6 10 25 20 25 5 0 4 -6 -3 -14z m-2555 -16 c4 0 6 3 4
8 -3 4 7 8 21 8 15 1 21 -1 14 -3 -6 -3 -9 -10 -5 -16 3 -7 2 -9 -2 -4 -5 4
-18 -1 -29 -10 -12 -10 -18 -14 -14 -9 10 12 -11 38 -25 29 -6 -4 -7 -1 -2 6
5 9 10 10 18 2 6 -6 15 -11 20 -11z m577 -1 c0 -5 -4 -9 -10 -9 -5 0 -10 7
-10 16 0 8 5 12 10 9 6 -3 10 -10 10 -16z m-380 -4 c-5 -7 -9 -14 -7 -16 1 -2
0 -3 -2 -1 -11 7 -7 29 5 29 9 0 11 -4 4 -12z m70 -10 c0 -12 -19 -12 -23 0
-4 9 -1 12 9 8 7 -3 14 -7 14 -8z m293 -19 c-3 -4 -9 -2 -14 5 -13 22 -11 31
5 17 8 -7 12 -17 9 -22z m-63 11 c0 -8 -7 -14 -15 -14 -11 0 -12 4 -4 14 6 7
13 13 15 13 2 0 4 -6 4 -13z m2207 -9 c-3 -8 -6 -5 -6 6 -1 11 2 17 5 13 3 -3
4 -12 1 -19z m-2626 -21 c-10 -9 -11 -8 -5 6 3 10 9 15 12 12 3 -3 0 -11 -7
-18z m192 8 c-3 -9 -8 -14 -10 -11 -3 3 -2 9 2 15 9 16 15 13 8 -4z m-218 -5
c-3 -5 -12 -10 -18 -10 -7 0 -6 4 3 10 19 12 23 12 15 0z m125 -5 c0 -8 -2
-15 -4 -15 -2 0 -6 7 -10 15 -3 8 -1 15 4 15 6 0 10 -7 10 -15z m2437 -8 c-2
-6 -9 -12 -15 -13 -7 -1 -8 0 -2 3 8 3 7 9 -1 19 -10 12 -9 13 5 8 9 -4 15
-11 13 -17z m-2302 -7 c3 -6 -1 -7 -9 -4 -18 7 -22 -11 -6 -21 13 -8 -6 -35
-24 -34 -7 0 -6 2 2 6 6 2 12 11 12 18 0 7 -6 16 -12 18 -10 4 -9 8 2 16 19
13 27 14 35 1z m245 4 c0 -8 -19 -13 -24 -6 -3 5 1 9 9 9 8 0 15 -2 15 -3z
m2140 -3 c0 -5 -6 -12 -12 -14 -9 -4 -9 -8 -3 -14 16 -13 16 -33 0 -27 -8 4
-15 10 -15 14 0 4 -7 7 -16 6 -9 0 -19 6 -21 14 -4 13 -3 13 6 0 9 -13 11 -13
11 2 0 16 13 26 38 27 6 1 12 -3 12 -8z m-2170 -44 c0 -10 5 -15 10 -12 6 4 8
11 5 16 -11 16 26 22 41 7 13 -13 12 -15 -7 -14 -12 1 -24 -5 -27 -13 -2 -8 0
-11 6 -8 5 4 15 0 22 -8 11 -13 9 -14 -11 -7 -13 5 -36 6 -52 1 -15 -4 -25 -4
-22 1 3 4 2 10 -2 13 -5 2 -3 2 4 1 7 -2 15 1 18 6 4 6 0 10 -7 11 -9 0 -9 2
-2 5 7 3 10 15 7 27 -4 18 -3 19 6 7 6 -8 11 -23 11 -33z m-60 8 c0 -2 -6 -5
-13 -8 -8 -3 -14 1 -14 8 0 7 6 11 14 8 7 -3 13 -6 13 -8z m2174 -26 c-4 -7 0
-9 14 -5 23 8 39 -8 21 -20 -8 -4 -9 -3 -5 4 4 7 2 12 -3 12 -15 0 -14 -17 2
-27 20 -13 16 -39 -7 -41 -11 0 -22 -5 -24 -10 -2 -6 -12 -8 -22 -5 -11 3 -18
9 -15 13 3 5 1 11 -5 15 -17 10 -11 25 10 25 15 0 20 7 20 25 0 14 5 25 11 25
5 0 7 -5 3 -11z m-1661 -36 c-4 -9 -2 -14 3 -10 6 3 15 -3 22 -13 9 -16 9 -18
-2 -14 -18 7 -27 -8 -15 -26 6 -10 9 -11 9 -2 0 6 6 12 13 12 8 0 11 -12 9
-37 -2 -21 -5 -58 -6 -83 -2 -25 -11 -61 -20 -80 -9 -19 -13 -25 -10 -12 4 16
1 22 -11 22 -9 0 -13 -4 -10 -10 3 -5 1 -10 -4 -10 -14 0 -14 17 -1 25 6 3 10
11 10 16 0 6 -5 7 -10 4 -16 -10 -7 18 10 33 8 7 11 12 5 11 -25 -3 -35 2 -35
19 0 13 2 14 9 4 6 -11 9 -9 13 6 3 11 1 25 -4 30 -13 13 -2 46 12 37 14 -9
13 18 -2 33 -9 9 -9 12 0 12 6 0 9 7 6 15 -4 8 -10 13 -14 10 -5 -3 -11 -1
-14 4 -4 5 4 12 16 14 13 2 24 5 25 6 1 0 -1 -6 -4 -16z m-639 -1 c2 -4 -4 -8
-14 -8 -10 0 -16 4 -14 8 3 4 9 8 14 8 5 0 11 -4 14 -8z m206 -2 c0 -5 -9 -10
-20 -10 -11 0 -20 5 -20 10 0 6 9 10 20 10 11 0 20 -4 20 -10z m2123 -94 c-5
-7 -9 -5 -11 6 -2 11 -9 15 -20 12 -14 -5 -15 -4 -2 4 18 13 44 -4 33 -22z
m-30 1 c7 4 5 -1 -3 -11 -13 -17 -14 -17 -21 1 -11 27 -10 40 2 20 6 -10 15
-14 22 -10z m-30 -40 c4 3 13 1 20 -5 8 -7 17 -9 20 -5 4 3 7 1 7 -5 0 -15 -5
-15 -33 -1 -21 10 -21 9 -3 -5 31 -25 29 -62 -5 -96 -17 -16 -28 -33 -25 -38
7 -12 -29 -64 -38 -55 -4 4 -4 0 -1 -9 4 -10 13 -15 23 -12 13 4 13 2 -3 -10
-18 -15 -20 -15 -27 4 -4 11 -13 17 -20 15 -7 -3 -18 6 -25 20 -6 14 -7 23 -3
20 5 -3 11 8 15 25 4 16 11 30 16 30 5 0 9 4 9 9 0 5 -10 7 -22 3 -20 -5 -21
-4 -10 11 8 9 10 22 6 29 -4 7 3 3 15 -10 23 -23 46 -21 37 4 -8 20 4 44 20
44 8 0 14 7 14 16 0 13 -3 14 -14 5 -12 -10 -13 -8 -9 9 4 15 9 18 18 10 6 -5
15 -7 18 -3z m-1685 -34 c1 -27 1 -27 -13 -9 -14 18 -12 25 10 36 0 0 2 -12 3
-27z m1563 -60 c-12 -20 -14 -14 -5 12 4 9 9 14 11 11 3 -2 0 -13 -6 -23z
m-2841 -18 c0 -1 -9 -10 -20 -20 -20 -18 -20 -18 -18 7 2 19 7 24 20 20 10 -2
18 -5 18 -7z m41 -49 c5 3 9 0 9 -5 0 -18 -18 -13 -41 12 -12 12 -19 16 -15 9
5 -7 -2 -16 -18 -22 -14 -5 -26 -15 -26 -22 0 -9 3 -8 10 2 6 10 10 11 10 3 0
-7 5 -13 11 -13 5 0 7 5 4 10 -3 6 -1 10 4 10 6 0 11 -4 11 -8 0 -5 19 -7 43
-5 23 1 38 0 32 -5 -5 -4 -10 -15 -10 -24 0 -21 -17 -26 -24 -7 -2 7 1 9 8 5
6 -4 11 -5 11 -2 0 3 -9 10 -19 16 -15 7 -22 7 -27 -2 -4 -7 -4 -10 1 -6 5 5
13 -2 19 -15 13 -26 35 -29 54 -7 8 9 11 10 6 1 -5 -10 -1 -11 17 -6 13 4 21
4 17 0 -9 -10 10 -35 25 -35 7 0 7 4 -1 12 -17 17 -15 29 3 22 8 -4 13 -10 10
-14 -3 -4 2 -13 11 -20 8 -7 13 -19 10 -26 -5 -13 14 -24 44 -24 10 0 20 -7
24 -15 3 -8 15 -15 27 -15 15 0 19 4 15 16 -4 10 -2 13 6 8 8 -5 9 -1 5 12 -5
14 -2 12 12 -6 11 -13 17 -28 15 -32 -6 -10 10 -11 19 -1 4 3 2 12 -4 20 -6 7
-8 13 -4 13 4 0 -8 14 -26 31 l-34 30 31 -15 c17 -8 34 -12 38 -9 3 4 6 1 6
-5 0 -6 6 -9 14 -6 17 6 31 -12 16 -21 -5 -3 -10 -1 -10 6 0 8 -4 8 -15 -1
-23 -19 1 -31 32 -17 19 9 31 7 58 -7 29 -16 32 -21 22 -37 -16 -25 -31 -24
-24 1 3 11 1 18 -3 15 -5 -3 -11 -1 -14 4 -8 12 -55 11 -63 -2 -11 -17 -11
-77 -1 -77 6 0 7 8 3 18 -5 13 -3 14 6 5 8 -8 19 -9 35 -3 26 10 27 9 18 -14
-3 -8 -13 -13 -22 -10 -15 5 -15 4 0 -6 17 -10 16 -13 -8 -35 -15 -14 -22 -25
-15 -25 6 0 14 7 17 15 4 8 11 15 16 15 7 0 6 -5 -1 -13 -6 -8 -8 -16 -5 -19
3 -4 -8 -5 -25 -4 -17 1 -27 -2 -24 -8 4 -5 -1 -7 -11 -3 -10 4 -15 3 -11 -4
4 -5 15 -7 26 -4 19 6 24 -6 19 -45 -1 -10 3 -9 14 5 11 14 14 15 10 4 -3 -11
3 -23 18 -33 24 -17 42 -21 34 -8 -8 13 18 37 43 38 21 1 22 -1 8 -11 -9 -7
-14 -15 -11 -18 3 -3 1 -14 -6 -24 -10 -16 -10 -16 -5 4 3 12 1 24 -5 28 -5 3
-10 -2 -10 -13 0 -11 -9 -22 -20 -25 -24 -6 -27 -27 -4 -27 9 0 12 5 8 12 -4
7 -3 8 4 4 7 -4 12 -11 12 -17 0 -13 -34 -11 -49 4 -11 10 -13 9 -7 -1 5 -9
-2 -11 -28 -8 -26 4 -34 2 -30 -8 6 -15 34 -17 34 -2 0 6 4 6 11 -1 6 -6 17
-9 24 -7 7 3 16 1 20 -5 3 -7 0 -8 -9 -5 -10 4 -16 1 -16 -7 0 -11 -3 -11 -10
1 -8 12 -10 10 -10 -9 0 -16 4 -22 15 -17 9 3 15 0 15 -8 0 -24 -12 -25 -30
-4 -11 15 -19 18 -24 10 -4 -7 -2 -12 5 -12 7 0 4 -6 -7 -14 -12 -9 -23 -11
-28 -5 -13 12 -29 12 -21 -1 4 -6 -2 -9 -13 -7 -44 7 -198 181 -289 327 -62
101 -97 174 -84 178 6 2 11 8 11 13 0 6 -4 8 -9 5 -10 -7 -25 22 -22 42 1 6
-3 12 -9 12 -6 0 -8 5 -5 10 3 6 1 10 -4 10 -6 0 -11 4 -11 9 0 6 9 9 19 8 11
0 17 -5 15 -9 -12 -19 26 -6 52 18 l28 27 9 -27 c5 -14 13 -24 18 -20z m49 -6
c0 -5 8 -6 18 -3 15 6 16 5 2 -11 -8 -11 -16 -14 -18 -7 -2 6 -8 11 -13 11
-10 0 -49 36 -49 45 0 3 14 -1 30 -10 17 -9 30 -20 30 -25z m1225 10 c3 -10
13 -21 21 -24 8 -3 12 -11 9 -16 -8 -12 -18 -76 -17 -105 1 -16 -2 -15 -17 8
-10 15 -20 25 -23 22 -3 -3 -8 6 -10 20 -3 14 -1 25 5 25 5 0 7 13 5 30 -3 23
-2 27 8 19 7 -6 10 -18 8 -27 -4 -13 -3 -13 6 2 10 15 8 23 -9 47 -14 19 -17
27 -6 23 8 -3 17 -14 20 -24z m-1155 -42 c0 -5 5 -6 10 -3 6 3 10 1 10 -4 0
-6 -5 -11 -11 -11 -6 0 -7 -6 -2 -12 4 -7 -5 -5 -19 4 -15 10 -35 15 -45 13
-10 -3 -8 0 5 6 12 7 22 16 22 20 0 5 7 6 15 3 8 -4 15 -10 15 -16z m1086 -75
c-3 -4 -6 0 -6 8 0 11 -2 12 -9 1 -7 -11 -9 -10 -14 3 -4 9 -3 13 3 10 6 -3
10 0 10 7 0 8 5 6 11 -5 6 -10 8 -21 5 -24z m-976 17 c0 -5 -4 -10 -10 -10 -5
0 -10 5 -10 10 0 6 5 10 10 10 6 0 10 -4 10 -10z m2527 4 c-3 -3 -12 -4 -19
-1 -8 3 -5 6 6 6 11 1 17 -2 13 -5z m89 -3 c-4 -5 0 -12 6 -15 7 -3 1 -3 -13
-1 -22 3 -25 0 -21 -20 2 -15 9 -22 18 -18 10 3 12 0 8 -10 -3 -10 -12 -13
-22 -9 -14 5 -15 4 -2 -10 8 -9 20 -13 25 -10 6 3 -2 -7 -17 -22 -22 -23 -30
-26 -47 -17 -28 15 -26 69 2 67 11 -1 22 5 25 12 2 7 0 12 -5 11 -21 -4 -23 2
-7 19 10 9 21 17 25 17 4 0 11 3 15 8 10 10 16 9 10 -2z m-109 -17 c-3 -3 -12
-4 -19 -1 -8 3 -5 6 6 6 11 1 17 -2 13 -5z m-1473 -23 c3 -5 -1 -11 -9 -15 -8
-3 -15 -1 -15 5 0 6 -5 7 -12 3 -7 -4 -8 -3 -4 4 9 14 33 16 40 3z m-70 -29
c2 -4 -4 -8 -15 -8 -10 0 -19 4 -19 8 0 4 6 8 14 8 8 0 17 -4 20 -8z m1546 2
c0 -8 -19 -13 -24 -6 -3 5 1 9 9 9 8 0 15 -2 15 -3z m-1450 -48 c0 -17 -5 -38
-11 -46 -9 -13 -10 -12 -5 2 3 11 1 15 -8 12 -22 -8 -38 20 -27 49 15 38 51
26 51 -17z m1444 3 c-2 -4 3 -10 12 -13 9 -4 14 -9 11 -12 -3 -4 -18 3 -32 14
-23 18 -24 21 -6 19 11 0 18 -4 15 -8z m-1564 -24 c14 -19 14 -19 -2 -6 -10 7
-18 18 -18 24 0 6 1 8 3 6 1 -2 9 -13 17 -24z m-810 0 c7 -8 8 -15 2 -15 -5 0
-15 7 -22 15 -7 8 -8 15 -2 15 5 0 15 -7 22 -15z m155 9 c13 -6 14 -9 3 -16
-10 -7 -8 -8 7 -7 36 3 45 -1 45 -17 0 -9 -8 -23 -17 -31 -10 -8 -12 -12 -5
-8 17 9 15 3 -13 -35 -14 -19 -25 -28 -25 -21 0 7 -5 9 -10 6 -8 -5 -8 -11 0
-20 11 -13 8 -17 -22 -28 -12 -4 -15 -2 -12 8 3 8 13 12 22 9 9 -2 4 2 -13 10
-16 7 -36 12 -45 9 -13 -4 -13 -4 0 6 13 9 13 11 0 11 -13 0 -13 1 0 10 8 5
11 10 5 10 -5 0 -3 5 5 10 9 6 10 10 3 10 -6 0 -15 -5 -18 -10 -9 -14 -25 -3
-25 17 0 11 6 14 27 8 23 -5 25 -4 14 9 -11 13 -9 14 18 6 21 -6 31 -5 31 2 0
6 3 9 6 5 3 -3 2 -12 -2 -19 -4 -7 -9 -21 -9 -30 -2 -25 -15 -35 -24 -19 -6 9
-11 10 -15 2 -10 -16 23 -26 43 -14 24 15 48 62 36 71 -11 7 -38 62 -31 62 3
0 12 -3 21 -6z m991 -31 c-11 -11 -17 4 -9 23 7 18 8 18 11 1 2 -10 1 -21 -2
-24z m1272 -19 c2 -31 -3 -41 -40 -75 -37 -34 -45 -37 -54 -24 -9 13 -13 13
-17 3 -2 -7 -7 -10 -11 -7 -3 3 5 23 19 43 30 44 30 47 8 39 -10 -3 -15 -3
-11 1 3 4 12 8 20 10 22 3 39 17 33 27 -4 5 -1 9 5 9 7 0 9 -7 6 -16 -5 -12
-2 -15 10 -10 13 5 15 2 11 -15 -5 -17 -3 -19 6 -10 9 9 9 16 0 31 -10 14 -10
20 0 23 7 3 12 6 12 6 1 1 2 -15 3 -35z m-1284 -3 c3 -5 -1 -11 -9 -14 -9 -4
-12 -1 -8 9 6 16 10 17 17 5z m-310 -40 c-2 -3 -12 3 -22 13 -16 17 -16 18 5
5 12 -7 20 -15 17 -18z m37 7 c-5 -13 -9 -27 -9 -31 0 -5 -4 -12 -8 -15 -4 -4
-4 -1 0 6 4 7 2 12 -6 12 -9 0 -9 3 -2 8 6 4 13 15 17 25 3 9 9 17 11 17 3 0
2 -10 -3 -22z m43 -59 c-3 -5 -10 -7 -15 -3 -5 3 -7 10 -3 15 3 5 10 7 15 3 5
-3 7 -10 3 -15z m186 -17 c0 -5 -9 -18 -20 -30 -12 -13 -16 -23 -10 -27 6 -4
9 -22 8 -41 -2 -34 -11 -43 -23 -24 -3 6 -18 8 -33 4 -23 -5 -25 -3 -12 8 8 7
24 30 35 52 11 21 25 41 32 43 7 3 10 9 7 14 -3 5 0 9 5 9 6 0 11 -4 11 -8z
m1195 -12 c-3 -5 1 -10 10 -10 9 0 13 5 10 10 -8 12 5 13 24 1 11 -7 8 -11
-10 -17 -39 -13 -49 -13 -49 0 0 12 9 26 17 26 2 0 1 -4 -2 -10z m-2220 -18
c-3 -3 -15 -6 -27 -7 -20 -2 -20 -1 -3 11 17 13 43 9 30 -4z m840 -9 c-2 -16
-4 -31 -4 -35 -1 -5 -9 -8 -18 -8 -13 0 -14 -3 -5 -12 7 -7 12 -16 12 -21 0
-5 -7 -2 -15 7 -15 15 -10 50 6 40 11 -6 12 7 1 22 -4 6 -15 10 -24 8 -10 -1
-20 1 -23 6 -3 5 3 7 12 6 10 -2 27 0 38 5 11 4 21 8 22 8 1 1 0 -11 -2 -26z
m-91 -25 c6 -4 1 -6 -10 -6 -16 2 -20 7 -16 22 4 15 7 17 10 6 3 -8 10 -18 16
-22z m290 -13 c-26 -18 -30 -11 -7 12 10 10 20 15 22 10 1 -4 -5 -14 -15 -22z
m-323 -59 c15 9 10 -2 -6 -16 -13 -10 -15 -9 -14 11 0 13 3 18 6 11 2 -6 9
-10 14 -6z m254 4 c-10 -16 23 -24 40 -10 29 24 17 -31 -12 -58 -16 -15 -21
-23 -11 -19 10 3 20 2 23 -4 11 -16 -6 -69 -21 -69 -8 0 -14 -7 -12 -16 2 -10
-3 -19 -11 -22 -9 -3 -11 1 -6 17 8 27 3 27 -21 -1 -10 -12 -14 -19 -9 -16 6
4 24 -5 40 -18 17 -13 24 -24 18 -24 -7 0 -13 -5 -13 -11 0 -5 5 -7 12 -3 7 4
8 3 4 -4 -4 -7 -18 -12 -32 -12 -14 0 -22 4 -19 10 3 6 -1 7 -10 4 -14 -6 -14
-8 2 -20 10 -7 14 -14 10 -14 -5 0 -1 -10 7 -22 9 -12 16 -27 16 -33 0 -5 -5
-3 -10 5 -8 12 -10 10 -10 -8 0 -13 4 -21 9 -17 5 3 12 1 15 -3 3 -5 -14 -9
-38 -8 -42 0 -44 2 -42 29 3 34 -9 44 -23 20 -6 -10 -10 -13 -10 -8 0 15 25
45 38 45 16 0 13 30 -4 36 -8 4 -15 11 -15 17 0 5 9 2 20 -8 18 -16 25 -14 21
8 0 4 5 7 12 7 8 0 8 3 -2 9 -21 14 -22 43 -3 64 16 18 16 19 -3 16 -11 -2
-26 -11 -33 -19 -11 -13 -12 -13 -10 0 1 8 -2 26 -6 38 -6 19 -2 30 18 51 14
15 26 38 26 52 1 21 2 22 11 6 8 -13 7 -22 -1 -32 -6 -8 -9 -19 -5 -25 3 -5 2
-10 -2 -10 -5 0 -9 -10 -10 -22 0 -13 1 -17 4 -10 3 6 9 10 14 7 5 -4 6 1 3 9
-4 11 3 17 23 22 32 8 53 22 53 37 0 5 -8 3 -18 -6 -10 -10 -23 -17 -28 -17
-5 0 0 7 10 15 17 13 17 15 3 21 -19 7 -23 34 -6 34 5 0 7 -5 4 -10z m-160
-43 c16 -4 14 -5 -6 -6 -17 -1 -29 5 -33 15 -5 13 -3 14 6 6 7 -5 22 -12 33
-15z m-145 -3 c0 -9 -5 -12 -12 -8 -8 5 -9 1 -4 -12 6 -15 5 -16 -5 -7 -10 10
-9 15 1 28 16 19 20 19 20 -1z m40 -14 c0 -5 6 -10 14 -10 14 0 26 -21 26 -46
0 -9 -4 -12 -10 -9 -5 3 -10 1 -10 -4 0 -18 17 -12 34 12 12 17 14 18 9 3 -4
-13 -3 -17 5 -12 7 4 12 2 12 -4 0 -6 -8 -10 -17 -8 -11 2 -19 -5 -21 -17 -2
-16 -1 -17 7 -5 9 13 11 12 11 -4 0 -12 -5 -16 -15 -12 -8 3 -15 1 -15 -5 0
-6 -7 -3 -16 5 -19 20 -40 11 -23 -10 7 -9 8 -14 1 -14 -17 0 -25 20 -14 33 6
7 12 17 14 22 1 6 7 9 11 7 5 -1 6 2 2 8 -3 6 -11 7 -17 4 -20 -12 -38 25 -26
52 11 24 38 34 38 14z m-110 -10 c8 -5 11 -10 5 -10 -5 0 -17 5 -25 10 -8 5
-10 10 -5 10 6 0 17 -5 25 -10z m207 -25 c0 -8 -4 -15 -9 -15 -10 0 -11 14 -1
23 9 10 10 9 10 -8z m-152 -15 c3 -5 2 -10 -4 -10 -5 0 -13 5 -16 10 -3 6 -2
10 4 10 5 0 13 -4 16 -10z m-41 -16 c3 -8 2 -12 -4 -9 -6 3 -10 10 -10 16 0
14 7 11 14 -7z m202 -61 c-3 -4 -12 2 -20 12 -10 15 -11 23 -2 37 10 17 12 16
20 -12 5 -17 6 -33 2 -37z m45 40 c-9 -4 -10 -7 -2 -13 16 -9 3 -40 -15 -33
-29 11 -13 51 21 51 6 0 4 -2 -4 -5z m-321 -33 c0 -5 -2 -10 -4 -10 -3 0 -8 5
-11 10 -3 6 -1 10 4 10 6 0 11 -4 11 -10z m-35 -29 c3 -5 2 -12 -3 -15 -5 -3
-9 1 -9 9 0 17 3 19 12 6z m41 -6 c-3 -20 -16 -31 -16 -13 0 13 8 28 16 28 1
0 1 -7 0 -15z m188 0 c3 -8 1 -15 -4 -15 -6 0 -10 7 -10 15 0 8 2 15 4 15 2 0
6 -7 10 -15z m-29 -13 c-3 -3 -11 0 -18 7 -9 10 -8 11 6 5 10 -3 15 -9 12 -12z
m115 3 c0 -8 -4 -15 -10 -15 -5 0 -7 7 -4 15 4 8 8 15 10 15 2 0 4 -7 4 -15z
m30 5 c0 -5 -2 -10 -4 -10 -3 0 -8 5 -11 10 -3 6 -1 10 4 10 6 0 11 -4 11 -10z
m-215 -30 c6 9 4 11 -5 5 -9 -5 -11 -4 -6 3 11 19 36 15 29 -5 -5 -12 -3 -14
7 -8 9 6 11 4 5 -5 -4 -7 -2 -16 6 -21 12 -7 12 -9 0 -9 -11 0 -11 -3 -1 -15
11 -13 10 -14 -4 -9 -11 4 -16 1 -16 -12 0 -14 -2 -16 -9 -6 -4 8 -12 14 -17
14 -30 1 -51 44 -29 60 6 5 4 8 -5 8 -13 0 -13 2 -1 9 10 7 19 5 26 -6 10 -13
14 -13 20 -3z m122 5 c0 -8 -4 -12 -9 -9 -5 3 -6 10 -3 15 9 13 12 11 12 -6z
m-30 -1 c-3 -3 -12 -4 -19 -1 -8 3 -5 6 6 6 11 1 17 -2 13 -5z m-169 -29 c-4
-13 -37 -14 -45 -2 -3 6 -1 7 5 3 6 -3 14 -2 17 4 8 13 28 9 23 -5z m270 -20
c-3 -3 -9 2 -12 12 -6 14 -5 15 5 6 7 -7 10 -15 7 -18z m-75 8 c-7 -2 -13 -9
-13 -14 0 -6 5 -7 12 -3 6 4 8 3 4 -4 -4 -6 4 -12 19 -14 14 -2 26 -7 26 -13
0 -5 9 -13 20 -17 11 -4 19 -17 20 -30 0 -22 1 -22 9 -3 6 13 9 15 9 5 1 -13
2 -13 11 0 8 13 10 12 10 -2 0 -10 -5 -18 -10 -18 -19 0 -22 -29 -5 -46 13
-13 14 -19 4 -25 -7 -4 -14 -15 -15 -23 -1 -9 2 -14 6 -11 5 3 11 1 15 -5 4
-6 -4 -10 -19 -10 -14 0 -30 8 -35 18 -8 13 -10 14 -11 2 0 -13 -1 -13 -11 0
-8 11 -12 12 -16 3 -8 -21 -63 -16 -64 5 0 10 -3 12 -6 5 -5 -13 -35 -18 -46
-7 -3 4 1 17 10 30 13 20 18 22 31 12 12 -10 14 -10 8 0 -4 6 -3 12 3 12 5 0
17 3 27 7 11 4 15 3 11 -4 -4 -7 0 -10 10 -8 10 2 22 4 28 4 5 1 4 6 -3 13
-18 18 -15 28 11 29 l22 0 -23 10 c-14 5 -20 13 -16 21 4 6 -3 4 -17 -5 -29
-21 -37 -21 -41 -2 -3 13 -6 13 -31 0 -25 -13 -27 -13 -18 3 5 9 17 17 27 17
9 0 20 10 25 23 5 14 5 22 -3 22 -7 0 -6 5 2 15 7 8 18 15 24 14 7 0 6 -2 -1
-6z m244 -35 c-3 -8 -6 -5 -6 6 -1 11 2 17 5 13 3 -3 4 -12 1 -19z m-530 -20
c-3 -8 -6 -5 -6 6 -1 11 2 17 5 13 3 -3 4 -12 1 -19z m48 13 c3 -5 1 -12 -4
-15 -5 -4 -12 0 -14 6 -4 10 -6 10 -6 0 -1 -7 6 -15 14 -18 20 -8 19 -30 -1
-38 -14 -5 -15 -4 -4 9 10 12 9 16 -4 21 -20 8 -21 44 -2 44 8 0 17 -4 21 -9z
m-78 -7 c-3 -3 -12 -4 -19 -1 -8 3 -5 6 6 6 11 1 17 -2 13 -5z m191 -56 c11
-26 10 -28 -11 -28 -18 0 -19 2 -7 10 8 5 10 10 4 10 -6 0 -11 6 -11 13 0 6
-4 21 -8 32 -7 18 -6 18 7 5 8 -8 20 -27 26 -42z m30 26 c2 -1 -5 -5 -15 -8
-9 -4 -14 -4 -10 0 4 4 1 14 -6 23 -11 14 -10 15 8 1 11 -8 21 -15 23 -16z
m-188 2 c0 -3 -4 -8 -10 -11 -5 -3 -10 -1 -10 4 0 6 5 11 10 11 6 0 10 -2 10
-4z m-30 -27 c12 -9 12 -10 -4 -5 -10 4 -24 2 -30 -3 -8 -6 -17 -6 -26 1 -12
8 -12 9 2 4 10 -3 20 -1 23 4 8 13 16 12 35 -1z m280 1 c0 -5 -5 -10 -11 -10
-5 0 -7 5 -4 10 3 6 8 10 11 10 2 0 4 -4 4 -10z m238 -3 c6 3 12 0 12 -7 0 -6
-4 -8 -10 -5 -5 3 -10 1 -10 -4 0 -18 -14 -13 -28 10 -12 18 -11 19 5 11 10
-5 24 -7 31 -5z m-48 -19 c0 -6 -3 -8 -7 -5 -3 4 -13 1 -21 -6 -13 -11 -14 -9
-2 10 14 22 30 22 30 1z m-355 -7 c-2 -4 2 -8 10 -8 8 0 12 4 9 8 -2 4 0 10 6
14 5 3 10 -1 10 -10 0 -8 7 -18 15 -21 8 -4 15 -10 15 -15 0 -5 -11 -4 -24 1
-18 6 -26 5 -30 -5 -3 -9 1 -12 15 -10 11 2 17 0 14 -6 -7 -11 -35 -12 -53 -1
-16 10 -24 52 -11 52 6 0 7 4 4 10 -3 6 1 7 9 4 9 -3 14 -9 11 -13z m144 2 c6
-10 11 -12 11 -5 0 6 5 12 11 12 8 0 8 -5 -1 -15 -9 -11 -16 -12 -25 -5 -6 5
-14 8 -17 5 -2 -3 -5 2 -5 10 0 20 14 19 26 -2z m-39 -13 c0 -5 -8 -10 -17
-10 -15 0 -16 2 -3 10 19 12 20 12 20 0z m278 -19 c3 -9 8 -8 21 3 15 13 16
11 13 -34 -4 -54 -27 -74 -50 -43 -10 14 -14 15 -21 5 -7 -11 -10 -10 -15 3
-3 9 -4 21 -1 26 4 5 -2 6 -12 2 -10 -3 -6 3 10 16 15 13 25 26 22 31 -3 4 3
7 12 6 9 -2 19 -8 21 -15z"/>
<path d="M6013 4786 c-40 -19 -27 -51 15 -35 21 8 23 8 13 -5 -7 -8 -27 -14
-44 -14 -18 1 -26 3 -19 6 10 3 10 7 2 17 -6 8 -18 11 -25 8 -12 -4 -12 -9 1
-28 10 -16 12 -25 4 -30 -6 -3 -8 -11 -4 -16 4 -6 11 -6 20 2 10 8 18 9 27 0
11 -9 19 -2 36 32 21 41 71 88 58 55 -3 -8 -1 -21 4 -29 8 -11 9 -10 7 6 -2
11 3 20 11 20 8 0 16 7 18 15 4 13 3 13 -6 0 -6 -8 -11 -10 -11 -4 0 14 -78
14 -107 0z m14 -22 c-3 -3 -12 -4 -19 -1 -8 3 -5 6 6 6 11 1 17 -2 13 -5z"/>
<path d="M5910 4733 c0 -16 2 -16 11 -3 8 12 9 11 6 -5 -2 -11 -9 -19 -15 -17
-7 1 -12 -2 -12 -8 0 -5 7 -10 16 -10 8 0 13 -4 10 -8 -2 -4 5 -9 16 -9 18 -2
19 0 5 15 -11 12 -13 22 -7 32 6 9 5 17 -3 22 -19 12 -27 9 -27 -9z"/>
<path d="M5970 4670 c0 -5 5 -10 10 -10 6 0 10 5 10 10 0 6 -4 10 -10 10 -5 0
-10 -4 -10 -10z"/>
<path d="M6666 4665 c4 -8 8 -15 10 -15 2 0 4 7 4 15 0 8 -4 15 -10 15 -5 0
-7 -7 -4 -15z"/>
<path d="M6190 4690 c0 -6 -4 -9 -9 -6 -5 4 -8 -1 -7 -9 3 -19 16 -32 16 -16
0 8 7 11 15 7 8 -3 15 -3 15 0 0 3 -7 12 -15 20 -9 9 -15 11 -15 4z"/>
<path d="M7020 4390 c0 -5 5 -10 11 -10 5 0 7 5 4 10 -3 6 -8 10 -11 10 -2 0
-4 -4 -4 -10z"/>
<path d="M7007 4346 c-4 -10 -1 -13 8 -9 8 3 12 9 9 14 -7 12 -11 11 -17 -5z"/>
<path d="M5230 4160 c6 -11 13 -20 16 -20 2 0 0 9 -6 20 -6 11 -13 20 -16 20
-2 0 0 -9 6 -20z"/>
<path d="M5335 3960 c-3 -5 -1 -10 4 -10 6 0 11 5 11 10 0 6 -2 10 -4 10 -3 0
-8 -4 -11 -10z"/>
<path d="M5290 3950 c0 -5 4 -10 9 -10 6 0 13 5 16 10 3 6 -1 10 -9 10 -9 0
-16 -4 -16 -10z"/>
<path d="M5396 3952 c-2 -4 4 -9 15 -9 11 -1 17 2 14 8 -7 11 -22 12 -29 1z"/>
<path d="M6657 4132 c6 -14 4 -15 -9 -4 -13 10 -18 10 -24 1 -5 -8 -3 -10 7
-5 8 4 5 0 -5 -8 -19 -16 -19 -16 1 -16 12 0 29 7 37 16 20 19 20 20 2 27 -11
4 -13 1 -9 -11z"/>
<path d="M6625 4080 c3 -5 8 -10 11 -10 2 0 4 5 4 10 0 6 -5 10 -11 10 -5 0
-7 -4 -4 -10z"/>
<path d="M7630 3920 c-9 -6 -10 -10 -3 -10 6 0 15 5 18 10 8 12 4 12 -15 0z"/>
<path d="M7686 3912 c-3 -6 -1 -14 5 -17 15 -10 25 3 12 16 -7 7 -13 7 -17 1z"/>
<path d="M7696 3787 c3 -10 9 -15 12 -12 3 3 0 11 -7 18 -10 9 -11 8 -5 -6z"/>
<path d="M7490 3655 c0 -5 5 -17 10 -25 5 -8 10 -10 10 -5 0 6 -5 17 -10 25
-5 8 -10 11 -10 5z"/>
<path d="M7590 3650 c0 -5 5 -10 11 -10 5 0 7 5 4 10 -3 6 -8 10 -11 10 -2 0
-4 -4 -4 -10z"/>
<path d="M7570 3631 c0 -5 7 -12 16 -15 14 -5 15 -4 4 9 -14 17 -20 19 -20 6z"/>
<path d="M7645 3590 c3 -5 11 -10 16 -10 6 0 7 5 4 10 -3 6 -11 10 -16 10 -6
0 -7 -4 -4 -10z"/>
<path d="M7690 3580 c-13 -8 -12 -10 3 -10 9 0 17 5 17 10 0 12 -1 12 -20 0z"/>
<path d="M5125 3820 c-3 -6 1 -7 9 -4 18 7 21 14 7 14 -6 0 -13 -4 -16 -10z"/>
<path d="M7506 3824 c-9 -22 -8 -26 6 -22 13 5 20 38 8 38 -4 0 -11 -7 -14
-16z"/>
<path d="M5592 3602 c4 -25 27 -39 56 -34 21 4 22 6 8 14 -9 5 -21 6 -26 3 -6
-3 -10 0 -10 8 0 8 -7 18 -15 21 -11 4 -15 0 -13 -12z"/>
<path d="M5685 3580 c3 -5 8 -10 11 -10 2 0 4 5 4 10 0 6 -5 10 -11 10 -5 0
-7 -4 -4 -10z"/>
<path d="M5720 3500 c0 -6 -7 -10 -16 -8 -10 2 -19 -4 -21 -12 -3 -11 -2 -12
5 -2 7 10 14 8 35 -8 20 -16 25 -17 21 -6 -3 9 -11 16 -18 16 -7 0 -6 4 3 9 9
6 10 11 2 15 -6 4 -11 2 -11 -4z"/>
<path d="M5693 3425 c0 -8 4 -12 9 -9 5 3 6 10 3 15 -9 13 -12 11 -12 -6z"/>
<path d="M5585 3400 c3 -5 8 -10 11 -10 2 0 4 5 4 10 0 6 -5 10 -11 10 -5 0
-7 -4 -4 -10z"/>
<path d="M5645 3370 c-3 -5 -1 -10 4 -10 6 0 11 5 11 10 0 6 -2 10 -4 10 -3 0
-8 -4 -11 -10z"/>
<path d="M5716 3361 c9 -9 34 -9 34 -1 0 5 -9 8 -20 7 -10 -1 -17 -3 -14 -6z"/>
<path d="M5620 3286 c0 -2 7 -7 16 -10 8 -3 12 -2 9 4 -6 10 -25 14 -25 6z"/>
<path d="M6155 2917 c-18 -14 -14 -37 8 -37 7 0 6 4 -3 10 -13 8 -12 11 5 24
11 9 17 16 14 16 -3 0 -13 -6 -24 -13z"/>
<path d="M7730 2780 c0 -5 7 -7 15 -4 8 4 15 8 15 10 0 2 -7 4 -15 4 -8 0 -15
-4 -15 -10z"/>
<path d="M4816 2628 c3 -5 10 -6 15 -3 13 9 11 12 -6 12 -8 0 -12 -4 -9 -9z"/>
<path d="M4960 2610 c-12 -8 -10 -10 8 -10 13 0 20 4 17 10 -7 12 -6 12 -25 0z"/>
<path d="M4870 2585 c0 -2 6 -8 13 -14 10 -8 14 -7 14 2 0 8 -6 14 -14 14 -7
0 -13 -1 -13 -2z"/>
<path d="M4948 2533 c12 -2 22 -9 22 -14 0 -5 5 -9 11 -9 8 0 8 5 -1 15 -7 8
-22 14 -34 14 -20 -2 -20 -2 2 -6z"/>
<path d="M5101 2517 c-6 -8 -8 -17 -4 -20 3 -4 1 -7 -6 -7 -7 0 -9 -5 -6 -10
9 -14 32 10 32 33 0 21 -1 21 -16 4z"/>
<path d="M5000 2510 c0 -5 5 -10 11 -10 5 0 7 5 4 10 -3 6 -8 10 -11 10 -2 0
-4 -4 -4 -10z"/>
<path d="M4973 2485 c0 -7 6 -11 14 -8 7 3 13 6 13 8 0 2 -6 5 -13 8 -8 3 -14
-1 -14 -8z"/>
<path d="M5116 2423 c-6 -14 -5 -15 5 -6 7 7 10 15 7 18 -3 3 -9 -2 -12 -12z"/>
<path d="M5118 2333 c6 -2 9 -10 6 -15 -4 -7 -2 -8 5 -4 13 9 5 26 -12 25 -9
0 -8 -2 1 -6z"/>
<path d="M5166 2291 c-18 -20 -20 -31 -6 -31 6 0 10 7 10 15 0 8 5 15 11 15 5
0 7 -5 3 -12 -5 -7 -2 -9 9 -5 10 4 17 0 20 -11 3 -12 5 -11 6 5 2 32 -32 48
-53 24z"/>
<path d="M5100 2282 c0 -5 7 -13 16 -16 10 -4 14 -1 12 6 -5 15 -28 23 -28 10z"/>
<path d="M5233 2275 c0 -7 6 -11 14 -8 7 3 13 6 13 8 0 2 -6 5 -13 8 -8 3 -14
-1 -14 -8z"/>
<path d="M5055 2200 c3 -5 8 -10 11 -10 2 0 4 5 4 10 0 6 -5 10 -11 10 -5 0
-7 -4 -4 -10z"/>
<path d="M5097 2196 c-11 -8 -14 -17 -8 -20 5 -4 15 3 21 14 13 23 11 24 -13
6z"/>
<path d="M5143 2189 c-2 -17 1 -18 12 -9 8 7 12 16 9 21 -9 16 -20 10 -21 -12z"/>
<path d="M5171 2154 c0 -11 3 -14 6 -6 3 7 2 16 -1 19 -3 4 -6 -2 -5 -13z"/>
<path d="M5370 2476 c0 -2 9 -6 20 -9 11 -3 18 -1 14 4 -5 9 -34 13 -34 5z"/>
<path d="M5315 2420 c3 -5 8 -10 11 -10 2 0 4 5 4 10 0 6 -5 10 -11 10 -5 0
-7 -4 -4 -10z"/>
<path d="M6220 1991 c0 -6 5 -13 10 -16 6 -3 10 1 10 9 0 9 -4 16 -10 16 -5 0
-10 -4 -10 -9z"/>
<path d="M5957 2135 c-6 -15 10 -32 20 -21 4 3 1 6 -5 6 -6 0 -9 7 -6 15 4 8
4 15 1 15 -3 0 -7 -7 -10 -15z"/>
<path d="M5881 1914 c6 -7 16 -11 21 -8 11 7 3 17 -18 20 -12 2 -13 -1 -3 -12z"/>
<path d="M6075 1850 c3 -5 10 -10 16 -10 5 0 9 5 9 10 0 6 -7 10 -16 10 -8 0
-12 -4 -9 -10z"/>
<path d="M6096 1777 c3 -10 9 -15 12 -12 3 3 0 11 -7 18 -10 9 -11 8 -5 -6z"/>
<path d="M6070 1761 c0 -6 4 -13 10 -16 6 -3 7 1 4 9 -7 18 -14 21 -14 7z"/>
<path d="M5948 1733 c7 -3 16 -2 19 1 4 3 -2 6 -13 5 -11 0 -14 -3 -6 -6z"/>
<path d="M6170 1748 c0 -6 3 -8 7 -5 3 4 18 0 32 -10 l26 -16 -19 21 c-21 24
-46 29 -46 10z"/>
</g>
</svg>
